<svg height="512" viewBox="0 0 64 64" width="512" xmlns="http://www.w3.org/2000/svg"><g id="outline"><path d="m47 4a1.771 1.771 0 0 0 -1.2.39 4.938 4.938 0 0 0 -1.8-.39 1.382 1.382 0 0 1 -.226-.031c-.057-.011-.12-.022-.19-.032a3.841 3.841 0 0 0 -3.584-1.937 3.841 3.841 0 0 0 -3.584 1.937c-.07.01-.133.021-.19.032a1.382 1.382 0 0 1 -.226.031 3.779 3.779 0 0 0 -1.75.566 1.579 1.579 0 0 0 -1.25-.566 3 3 0 0 0 -3 3v24a1 1 0 0 0 1 1h18a1 1 0 0 0 1-1v-7.1a5 5 0 0 0 0-9.8v-7.1a3 3 0 0 0 -3-3zm1 26h-16v-18h16zm0-20h-16v-3a1 1 0 0 1 .824-.984l.018.034a3.233 3.233 0 0 0 .406.608 1.028 1.028 0 0 0 1.5 0 2.816 2.816 0 0 1 1.252-.658 3.31 3.31 0 0 0 .578-.062l.107-.021a1 1 0 0 0 1.373-.691c.256-1.107 1.442-1.226 1.942-1.226s1.686.119 1.942 1.226a1 1 0 0 0 1.373.691l.107.021a3.31 3.31 0 0 0 .578.062 2.715 2.715 0 0 1 1.248.348 1.03 1.03 0 0 0 1.5 0c.1-.114.179-.217.25-.311l.031-.037a1 1 0 0 1 .971 1zm4 9a3.006 3.006 0 0 1 -2 2.829v-5.658a3.006 3.006 0 0 1 2 2.829z"/><path d="m34 14h2v2h-2z"/><path d="m42 14h2v2h-2z"/><path d="m21 41v7h-7.808l-4.82-1.929a1 1 0 0 0 -1.079.222l-2 2a1 1 0 0 0 -.061 1.348l5 6a1 1 0 0 0 .768.359h16v5a1 1 0 0 0 1 1h30a1 1 0 0 0 1-1v-20a7.008 7.008 0 0 0 -7-7h-24a7.008 7.008 0 0 0 -7 7zm6 13h-15.532l-4.115-4.938.888-.888 4.387 1.755a1.012 1.012 0 0 0 .372.071h9a1 1 0 0 0 1-1v-3h4zm0-10h-4v-3a5.008 5.008 0 0 1 4-4.9zm26-7.9a5.008 5.008 0 0 1 4 4.9v3h-4zm0 9.9h4v14h-4zm-2 2h-6v-2h6zm-7.414-12-3.586 3.586-3.586-3.586zm-14.586 0h4.586l5.707 5.707a1 1 0 0 0 1.414 0l5.707-5.707h4.586v8h-7a1 1 0 0 0 -1 1v4a1 1 0 0 0 1 1h7v10h-22z"/><path d="m38 16h2v4h-2z"/><path d="m44 25v-2a1 1 0 0 0 -1-1h-8a1 1 0 0 0 -1 1v2a5 5 0 0 0 10 0zm-2 0a3 3 0 0 1 -6 0v-1h6z"/><path d="m13.707 22.293a1 1 0 0 0 -1.414 0l-7 7a1 1 0 0 0 0 1.414l7 7a1 1 0 0 0 1.414 0l7-7a1 1 0 0 0 0-1.414zm-.707 13.293-5.586-5.586 5.586-5.586 5.586 5.586z"/><path d="m12 27h2v2h-2z"/><path d="m12 31h2v2h-2z"/><path d="m9 39h2v5h-2z"/><path d="m15 41h2v5h-2z"/></g></svg>